# xmcd
#
# Track frame offsets:
# 150
# 13117
# 24320
# 40397
# 51590
# 64275
# 76587
# 89270
# 101575
# 113705
#
# Disc length: 1740 seconds
#
#
# Revision: 0
# Processed by: cddbd v1.5.1PL0 Copyright (c) Steve Scherf et al.
# Submitted via: FreeRIP 2.942 
#
DISCID=7906ca0a
DTITLE=Bill Anderson - Best Of The Best
DYEAR=1999
DGENRE=Country
TTITLE0=Still
TTITLE1=I Get The Fever
TTITLE2=Mama Sang A Song
TTITLE3=Wild Weekend
TTITLE4=Po' Folks
TTITLE5=Bright Lights And Country Music
TTITLE6=I Love You Drops
TTITLE7=Tips Of My Fingers
TTITLE8=Three A.M.
TTITLE9=The Corner Of My Life
EXTD=King Records
EXTT0=
EXTT1=
EXTT2=
EXTT3=
EXTT4=
EXTT5=
EXTT6=
EXTT7=
EXTT8=
EXTT9=
PLAYORDER=
